<svg width="24" height="24" viewBox="0 0 24 24" fill="none" xmlns="http://www.w3.org/2000/svg">
<g id="flag:kz-1x1">
<g clip-path="url(#clip0_85_1352)">
<path id="Vector" d="M0 0H24V24H0V0Z" fill="#00ABC2"/>
<g id="Group">
<g id="Group_2">
<path id="Vector_2" d="M12.9701 13.3085C14.7542 13.3085 16.2005 11.8622 16.2005 10.0781C16.2005 8.29396 14.7542 6.84766 12.9701 6.84766C11.186 6.84766 9.73975 8.29396 9.73975 10.0781C9.73975 11.8622 11.186 13.3085 12.9701 13.3085Z" fill="#FFEC2D"/>
<g id="flagKz1x10">
<g id="flagKz1x11">
<path id="flagKz1x12" d="M12.9705 6.40844C13.1625 6.40604 13.2345 6.28604 13.2345 6.14204C13.2345 5.95004 12.9705 5.03564 12.9705 5.03564C12.9705 5.03564 12.7065 5.95004 12.7065 6.14204C12.7065 6.28604 12.7785 6.40844 12.9705 6.40844Z" fill="#FFEC2D"/>
<path id="flagKz1x12_2" d="M16.6404 10.0781C16.6428 10.2701 16.7628 10.3421 16.9068 10.3421C17.0988 10.3421 18.0132 10.0781 18.0132 10.0781C18.0132 10.0781 17.0988 9.81409 16.9068 9.81409C16.7628 9.81409 16.6404 9.88609 16.6404 10.0781Z" fill="#FFEC2D"/>
<path id="flagKz1x12_3" d="M12.9709 13.7477C12.7789 13.7501 12.7069 13.8701 12.7069 14.0141C12.7069 14.2061 12.9709 15.1205 12.9709 15.1205C12.9709 15.1205 13.2349 14.2061 13.2349 14.0141C13.2349 13.8701 13.1629 13.7477 12.9709 13.7477Z" fill="#FFEC2D"/>
<path id="flagKz1x12_4" d="M9.30102 10.078C9.29862 9.88604 9.17862 9.81404 9.03462 9.81404C8.84262 9.81404 7.92822 10.078 7.92822 10.078C7.92822 10.078 8.84262 10.342 9.03462 10.342C9.17862 10.342 9.30102 10.27 9.30102 10.078Z" fill="#FFEC2D"/>
</g>
<g id="flagKz1x11_2">
<path id="flagKz1x12_5" d="M14.3748 6.68781C14.5531 6.75907 14.6656 6.67576 14.7207 6.54272C14.7941 6.36533 14.9002 5.41951 14.9002 5.41951C14.9002 5.41951 14.3063 6.16328 14.2328 6.34066C14.1777 6.4737 14.1974 6.61434 14.3748 6.68781Z" fill="#FFEC2D"/>
<path id="flagKz1x12_6" d="M16.3607 11.4824C16.2894 11.6607 16.3727 11.7731 16.5057 11.8282C16.6831 11.9017 17.629 12.0077 17.629 12.0077C17.629 12.0077 16.8852 11.4139 16.7078 11.3404C16.5748 11.2853 16.4341 11.305 16.3607 11.4824Z" fill="#FFEC2D"/>
<path id="flagKz1x12_7" d="M11.5661 13.4683C11.3878 13.3971 11.2754 13.4804 11.2203 13.6134C11.1468 13.7908 11.0408 14.7366 11.0408 14.7366C11.0408 14.7366 11.6346 13.9929 11.7081 13.8155C11.7632 13.6824 11.7435 13.5418 11.5661 13.4683Z" fill="#FFEC2D"/>
<path id="flagKz1x12_8" d="M9.58027 8.67378C9.65153 8.49547 9.56821 8.38303 9.43517 8.32793C9.25779 8.25445 8.31197 8.14843 8.31197 8.14843C8.31197 8.14843 9.05573 8.74226 9.23312 8.81573C9.36616 8.87084 9.50679 8.85116 9.58027 8.67378Z" fill="#FFEC2D"/>
</g>
<g id="flagKz1x11_3">
<path id="flagKz1x12_9" d="M15.5651 7.4832C15.7025 7.61727 15.8383 7.58332 15.9401 7.4815C16.0759 7.34574 16.5358 6.51248 16.5358 6.51248C16.5358 6.51248 15.7025 6.97238 15.5668 7.10815C15.465 7.20997 15.4293 7.34743 15.5651 7.4832Z" fill="#FFEC2D"/>
<path id="flagKz1x12_10" d="M15.5648 12.6729C15.4307 12.8103 15.4646 12.9461 15.5665 13.0479C15.7022 13.1837 16.5355 13.6436 16.5355 13.6436C16.5355 13.6436 16.0756 12.8103 15.9398 12.6746C15.838 12.5727 15.7005 12.5371 15.5648 12.6729Z" fill="#FFEC2D"/>
<path id="flagKz1x12_11" d="M10.3753 12.6728C10.2379 12.5387 10.1021 12.5727 10.0003 12.6745C9.86453 12.8103 9.40463 13.6435 9.40463 13.6435C9.40463 13.6435 10.2379 13.1836 10.3737 13.0479C10.4755 12.946 10.5111 12.8086 10.3753 12.6728Z" fill="#FFEC2D"/>
<path id="flagKz1x12_12" d="M10.3757 7.48326C10.5097 7.3458 10.4758 7.21003 10.374 7.10821C10.2382 6.97244 9.40494 6.51254 9.40494 6.51254C9.40494 6.51254 9.86484 7.3458 10.0006 7.48156C10.1024 7.58339 10.2399 7.61902 10.3757 7.48326Z" fill="#FFEC2D"/>
</g>
<g id="flagKz1x11_4">
<path id="flagKz1x12_13" d="M16.3606 8.67379C16.4363 8.85026 16.5747 8.87086 16.7077 8.81575C16.8851 8.74228 17.6289 8.14845 17.6289 8.14845C17.6289 8.14845 16.683 8.25447 16.5057 8.32794C16.3726 8.38305 16.2871 8.49641 16.3606 8.67379Z" fill="#FFEC2D"/>
<path id="flagKz1x12_14" d="M14.3748 13.4683C14.1983 13.544 14.1777 13.6825 14.2328 13.8155C14.3063 13.9929 14.9001 14.7366 14.9001 14.7366C14.9001 14.7366 14.7941 13.7908 14.7206 13.6134C14.6655 13.4804 14.5522 13.3949 14.3748 13.4683Z" fill="#FFEC2D"/>
<path id="flagKz1x12_15" d="M9.57987 11.4823C9.50418 11.3059 9.36576 11.2853 9.23272 11.3404C9.05534 11.4139 8.31157 12.0077 8.31157 12.0077C8.31157 12.0077 9.25739 11.9017 9.43478 11.8282C9.56782 11.7731 9.65335 11.6597 9.57987 11.4823Z" fill="#FFEC2D"/>
<path id="flagKz1x12_16" d="M11.5661 6.68778C11.7426 6.61209 11.7632 6.47367 11.7081 6.34063C11.6346 6.16325 11.0408 5.41948 11.0408 5.41948C11.0408 5.41948 11.1468 6.3653 11.2203 6.54269C11.2754 6.67573 11.3887 6.76126 11.5661 6.68778Z" fill="#FFEC2D"/>
</g>
</g>
<g id="flagKz1x10_2">
<g id="flagKz1x11_5">
<path id="flagKz1x12_17" d="M13.6886 6.47958C13.8774 6.51485 13.9715 6.41129 13.9997 6.27008C14.0373 6.0818 13.9576 5.13339 13.9576 5.13339C13.9576 5.13339 13.5196 5.97834 13.4819 6.16662C13.4537 6.30783 13.5003 6.44196 13.6886 6.47958Z" fill="#FFEC2D"/>
<path id="flagKz1x12_18" d="M16.5684 10.7971C16.5331 10.9859 16.6367 11.08 16.7779 11.1082C16.9662 11.1458 17.9146 11.0661 17.9146 11.0661C17.9146 11.0661 17.0696 10.6281 16.8814 10.5905C16.7401 10.5622 16.606 10.6089 16.5684 10.7971Z" fill="#FFEC2D"/>
<path id="flagKz1x12_19" d="M12.2508 13.6765C12.0621 13.6413 11.968 13.7448 11.9398 13.8861C11.9021 14.0743 11.9818 15.0227 11.9818 15.0227C11.9818 15.0227 12.4199 14.1778 12.4575 13.9895C12.4857 13.8483 12.4391 13.7142 12.2508 13.6765Z" fill="#FFEC2D"/>
<path id="flagKz1x12_20" d="M9.37155 9.35899C9.40682 9.17024 9.30325 9.07612 9.16204 9.04791C8.97377 9.01029 8.02536 9.08999 8.02536 9.08999C8.02536 9.08999 8.87031 9.52805 9.05858 9.56567C9.19979 9.59389 9.33393 9.54727 9.37155 9.35899Z" fill="#FFEC2D"/>
</g>
<g id="flagKz1x11_6">
<path id="flagKz1x12_21" d="M15.0114 7.02873C15.1722 7.13354 15.2988 7.07388 15.3789 6.95421C15.4857 6.79467 15.775 5.88795 15.775 5.88795C15.775 5.88795 15.047 6.50094 14.9402 6.66049C14.8601 6.78015 14.8518 6.92192 15.0114 7.02873Z" fill="#FFEC2D"/>
<path id="flagKz1x12_22" d="M16.0195 12.1195C15.9147 12.2804 15.9743 12.407 16.094 12.4871C16.2536 12.5939 17.1603 12.8832 17.1603 12.8832C17.1603 12.8832 16.5473 12.1551 16.3877 12.0483C16.2681 11.9682 16.1263 11.96 16.0195 12.1195Z" fill="#FFEC2D"/>
<path id="flagKz1x12_23" d="M10.9286 13.1275C10.7677 13.0227 10.6411 13.0824 10.561 13.202C10.4542 13.3616 10.1649 14.2683 10.1649 14.2683C10.1649 14.2683 10.893 13.6553 10.9998 13.4958C11.0799 13.3761 11.0881 13.2343 10.9286 13.1275Z" fill="#FFEC2D"/>
<path id="flagKz1x12_24" d="M9.92045 8.03673C10.0253 7.87585 9.9656 7.74926 9.84594 7.66916C9.68639 7.56235 8.77967 7.27305 8.77967 7.27305C8.77967 7.27305 9.39266 8.00111 9.55221 8.10792C9.67188 8.18802 9.81364 8.19628 9.92045 8.03673Z" fill="#FFEC2D"/>
</g>
<g id="flagKz1x11_7">
<path id="flagKz1x12_25" d="M16.0229 8.04212C16.1315 8.20052 16.2712 8.19384 16.391 8.11394C16.5508 8.00741 17.165 7.28043 17.165 7.28043C17.165 7.28043 16.2578 7.56814 16.0981 7.67467C15.9783 7.75457 15.9164 7.88238 16.0229 8.04212Z" fill="#FFEC2D"/>
<path id="flagKz1x12_26" d="M15.006 13.1311C14.8476 13.2396 14.8543 13.3794 14.9342 13.4992C15.0407 13.6589 15.7677 14.2732 15.7677 14.2732C15.7677 14.2732 15.48 13.366 15.3734 13.2062C15.2935 13.0864 15.1657 13.0246 15.006 13.1311Z" fill="#FFEC2D"/>
<path id="flagKz1x12_27" d="M9.91701 12.1141C9.80849 11.9557 9.6687 11.9624 9.5489 12.0423C9.38917 12.1488 8.77491 12.8758 8.77491 12.8758C8.77491 12.8758 9.68213 12.5881 9.84186 12.4816C9.96166 12.4017 10.0235 12.2739 9.91701 12.1141Z" fill="#FFEC2D"/>
<path id="flagKz1x12_28" d="M10.934 7.02517C11.0924 6.91664 11.0857 6.77686 11.0058 6.65706C10.8993 6.49732 10.1723 5.88306 10.1723 5.88306C10.1723 5.88306 10.46 6.79028 10.5665 6.95002C10.6464 7.06982 10.7742 7.1317 10.934 7.02517Z" fill="#FFEC2D"/>
</g>
<g id="flagKz1x11_8">
<path id="flagKz1x12_29" d="M16.5699 9.36534C16.6095 9.55322 16.7412 9.60054 16.8825 9.57257C17.0708 9.53527 17.9165 9.09869 17.9165 9.09869C17.9165 9.09869 16.9682 9.01733 16.7799 9.05462C16.6386 9.08259 16.5326 9.177 16.5699 9.36534Z" fill="#FFEC2D"/>
<path id="flagKz1x12_30" d="M13.6829 13.6779C13.495 13.7175 13.4477 13.8492 13.4757 13.9905C13.5129 14.1788 13.9495 15.0245 13.9495 15.0245C13.9495 15.0245 14.0309 14.0763 13.9936 13.8879C13.9656 13.7467 13.8712 13.6406 13.6829 13.6779Z" fill="#FFEC2D"/>
<path id="flagKz1x12_31" d="M9.37057 10.7909C9.33093 10.603 9.19923 10.5557 9.05797 10.5837C8.86963 10.621 8.02392 11.0576 8.02392 11.0576C8.02392 11.0576 8.97218 11.1389 9.16052 11.1016C9.30178 11.0737 9.40787 10.9793 9.37057 10.7909Z" fill="#FFEC2D"/>
<path id="flagKz1x12_32" d="M12.2571 6.47836C12.4449 6.43871 12.4923 6.30701 12.4643 6.16576C12.427 5.97741 11.9904 5.13171 11.9904 5.13171C11.9904 5.13171 11.9091 6.07997 11.9463 6.26831C11.9743 6.40957 12.0687 6.51565 12.2571 6.47836Z" fill="#FFEC2D"/>
</g>
</g>
</g>
<g id="Group_3">
<path id="Vector_3" d="M12.8581 15.7199C12.7741 15.8711 12.7237 16.0463 12.6181 16.1831C12.2917 15.8879 11.8213 15.8951 11.4085 15.8783C11.0677 15.8591 10.6981 15.8279 10.4341 15.5855C10.1581 15.3575 9.93011 15.0647 9.62291 14.8799C9.33422 14.8178 9.0629 14.6924 8.82851 14.5127C8.34371 14.1167 8.06531 13.5287 7.59011 13.1207C7.50131 13.0343 7.39331 12.9647 7.29251 12.8903C7.19651 12.9143 7.23971 13.1207 7.12211 13.0151C7.05731 12.9671 6.89651 12.9647 6.88211 13.0295C7.02611 13.2215 7.17251 13.4375 7.19411 13.6823C7.09331 13.6919 6.91811 13.6607 6.87011 13.6967C7.002 13.8946 7.16774 14.0676 7.35971 14.2079C7.26851 14.2223 7.08851 14.2151 7.05251 14.2511C7.2322 14.4232 7.45404 14.5449 7.69571 14.6039C7.74371 14.6711 7.62131 14.8007 7.72691 14.8583C7.78691 14.8823 7.98851 14.9255 7.84931 14.9951C7.75331 15.0575 7.78931 15.2087 7.91171 15.2039C7.98851 15.2447 8.16131 15.2519 8.17571 15.3239C8.10611 15.3911 7.89491 15.4727 8.07491 15.5399C8.24461 15.6361 8.43448 15.6912 8.62931 15.7007C8.53331 15.7823 8.41331 15.8279 8.31491 15.9047C8.75891 16.1663 9.25091 16.3367 9.74051 16.5047C9.93251 16.5671 10.1317 16.6271 10.3333 16.6655C9.74771 16.6319 9.18131 16.4591 8.64851 16.2215C8.37251 16.1015 8.09651 15.9839 7.81331 15.8807C7.93571 15.8159 8.07971 15.7991 8.20931 15.7439C7.94051 15.6911 7.65011 15.6719 7.41731 15.5279C7.45091 15.4607 7.58531 15.4583 7.66211 15.4247C7.80611 15.3911 7.89251 15.3527 7.69331 15.3383C7.49171 15.2831 7.26131 15.3071 7.08131 15.1871C7.09331 15.1151 7.28051 15.1391 7.35491 15.1079C7.45091 15.0911 7.55651 15.0767 7.63331 15.0119C7.32131 14.8847 6.91331 14.9759 6.66851 14.6999C6.61331 14.5943 6.84371 14.6783 6.90851 14.6615C7.07651 14.6615 7.25651 14.7143 7.41731 14.6471C6.96131 14.4479 6.47411 14.2631 6.12851 13.8935C6.09011 13.8335 5.97491 13.6703 6.06851 13.6511C6.33731 13.6871 6.53171 13.9799 6.82211 13.9343C6.86051 13.8839 6.65411 13.7999 6.60131 13.7255C6.16716 13.3767 5.78845 12.964 5.47811 12.5015C5.45891 12.3407 5.70611 12.3167 5.77091 12.4391C6.09251 12.7511 6.38291 13.1111 6.78371 13.3223C6.92771 13.3919 6.70211 13.2407 6.67331 13.1855C6.29211 12.7629 5.96259 12.2965 5.69171 11.7959C5.64371 11.7047 5.56931 11.5391 5.70851 11.4911C5.84531 11.4215 5.98451 11.5151 6.05411 11.6351C6.32531 11.9783 6.52691 12.3863 6.86531 12.6719C6.57731 12.1127 6.26771 11.5199 6.26051 10.8767C6.26771 10.7519 6.27491 10.5647 6.44531 10.5671C6.58931 10.5455 6.56531 10.7279 6.61331 10.8143C6.75251 11.2895 6.81251 11.8031 7.09331 12.2207C7.03331 11.8703 6.93971 11.5079 7.00211 11.1503C7.01651 11.0303 7.14611 10.9967 7.23491 11.0687C7.30451 11.2367 7.31891 11.4503 7.38131 11.6327C7.75535 12.8751 8.5429 13.9523 9.61331 14.6855C10.4898 15.2853 11.5125 15.6361 12.5725 15.7007C12.6685 15.7103 12.7645 15.7127 12.8581 15.7175M16.1317 17.9039C15.9589 18.0095 15.8245 17.8223 15.6805 17.7671C15.5749 17.8247 15.5653 18.0119 15.4693 18.1031C15.3541 18.2351 15.2101 18.0647 15.2221 17.9351C15.0829 18.0527 15.0133 18.3191 14.7901 18.2807C14.6821 18.1943 14.6029 18.0119 14.5213 18.2207C14.4565 18.3215 14.2813 18.4655 14.1877 18.3119C14.1589 18.1775 14.0917 18.0191 14.0197 18.2327C13.9669 18.3863 13.8037 18.4967 13.6501 18.4295C13.5637 18.3599 13.7173 18.1007 13.6093 18.1175C13.4461 18.2279 13.3501 18.4943 13.1221 18.4727C13.0333 18.3767 13.1773 18.2063 13.0789 18.0959C12.9661 18.2423 12.8389 18.4583 12.6397 18.4727C12.5437 18.3959 12.6445 18.1727 12.5821 18.1415C12.3805 18.2615 12.1645 18.4799 11.9101 18.4127C12.0085 18.0287 12.4261 17.8967 12.7741 17.8679C13.3765 17.7935 14.0101 17.9303 14.5909 17.7119C14.6845 17.6543 14.9101 17.5751 14.8309 17.4431C14.7589 17.3375 15.0157 17.3783 15.0397 17.2559C15.0253 17.1023 15.1597 17.1239 15.2893 17.1119C15.8749 17.0855 16.4533 17.2079 17.0365 17.2295C17.0797 17.5127 16.7653 17.7119 16.5085 17.6255C16.3885 17.6447 16.2085 17.3471 16.2445 17.5631C16.2205 17.6783 16.2349 17.8271 16.1317 17.9039ZM11.1541 17.3231C11.2885 17.4455 11.3845 17.2991 11.5117 17.2439C11.9271 17.0813 12.3174 16.8607 12.6709 16.5887C12.8917 16.4063 13.0837 16.1687 13.3813 16.1087C13.9621 15.9335 14.5789 15.9551 15.1597 15.7919C15.6037 15.1871 16.3549 14.9687 16.9861 14.6207C17.1277 14.5775 17.1829 14.4599 17.2261 14.3327C17.4661 13.9511 17.7949 13.6151 18.1837 13.3847C18.3672 13.2764 18.5834 13.2372 18.7933 13.2743C18.7644 13.5192 18.6475 13.7452 18.4645 13.9103C18.6061 13.9079 18.7285 13.8191 18.8677 13.8239C18.9157 14.0783 18.6421 14.2103 18.4957 14.3687C18.5773 14.3879 18.8893 14.4119 18.7189 14.4935C18.5029 14.6423 18.2557 14.7455 18.0565 14.9207C18.2413 14.9543 18.2629 14.9927 18.0757 15.0599C17.9725 15.1271 17.7781 15.1511 17.7589 15.2855C17.8981 15.3719 17.6965 15.4535 17.6173 15.4823C17.4685 15.5183 17.3101 15.5831 17.5093 15.6983C17.4349 15.8111 17.2717 15.8351 17.1397 15.8231C17.1805 15.9527 17.2381 16.0967 17.0725 16.1543C16.701 16.448 16.2561 16.634 15.7861 16.6919C16.3741 16.7351 16.9813 16.6271 17.4829 16.3079C17.5501 16.2287 17.8981 16.1423 17.7037 16.0775C17.6125 16.0391 17.4157 15.9959 17.4013 15.9263C17.6749 15.7583 18.0181 15.8183 18.3109 15.7199C18.3181 15.6239 18.0877 15.6503 18.0013 15.6287C17.7973 15.6119 17.8093 15.5591 18.0061 15.5399C18.2557 15.4727 18.5389 15.4607 18.7501 15.2999C18.5797 15.2183 18.3637 15.2879 18.1813 15.2231C18.4909 15.0887 18.8557 15.0743 19.1341 14.8703C19.2613 14.7287 18.9709 14.7743 18.8869 14.7767C18.7165 14.8079 18.6373 14.7239 18.8317 14.6543C19.1653 14.4071 19.5853 14.2487 19.8205 13.8935C19.8757 13.8143 19.9501 13.5743 19.7725 13.6583C19.5421 13.7375 19.3381 13.9967 19.0717 13.9175C19.5949 13.5119 20.0893 13.0535 20.4469 12.4943C20.4661 12.3311 20.2117 12.3143 20.1469 12.4415C19.8109 12.7631 19.5085 13.1447 19.0789 13.3487C19.4838 12.9439 19.8355 12.489 20.1253 11.9951C20.1901 11.8511 20.3605 11.6759 20.2693 11.5151C20.1181 11.3903 19.9309 11.5055 19.8541 11.6519C19.5925 11.9927 19.3957 12.3887 19.0621 12.6671C19.3525 12.1079 19.6573 11.5103 19.6621 10.8671C19.6621 10.7327 19.6381 10.5359 19.4557 10.5623C19.3117 10.5863 19.3477 10.8023 19.2877 10.9103C19.1581 11.3519 19.0957 11.8295 18.8317 12.2135C18.8917 11.8559 18.9949 11.4815 18.9157 11.1215C18.8773 10.9583 18.6157 11.0279 18.6517 11.1887C18.3397 12.7703 17.2765 14.1527 15.8917 14.9519C15.2557 15.3119 14.5477 15.5423 13.8229 15.6479C13.6309 15.6887 13.4197 15.6647 13.2349 15.7319C12.7837 16.0751 12.5125 16.6535 11.9437 16.8335C11.6869 16.9607 11.3557 16.9871 11.1733 17.2223C11.1585 17.2538 11.1519 17.2885 11.1541 17.3231ZM12.3949 17.0759C12.3085 17.0807 12.2245 17.0903 12.1405 17.1167C12.0277 17.1335 11.9197 17.1719 11.8093 17.1887L11.7637 17.1983L11.6893 17.2055C11.699 17.2458 11.699 17.2877 11.6893 17.3279C11.6815 17.3461 11.6701 17.3624 11.6557 17.3759C11.6413 17.3951 11.6245 17.4095 11.6029 17.4191C11.5834 17.4287 11.5622 17.4344 11.5405 17.4359C11.5189 17.4359 11.4973 17.4359 11.4757 17.4263C11.4541 17.4191 11.4349 17.4071 11.4157 17.3903L11.3485 17.4023H11.2861L11.2189 17.3783C11.1972 17.3698 11.1763 17.3594 11.1565 17.3471C11.0749 17.3951 10.9837 17.4407 10.9333 17.5247C10.9099 17.5632 10.8967 17.607 10.8949 17.6519C10.8901 17.7095 10.9045 17.7671 10.9285 17.8199C10.9381 17.8343 10.9453 17.7647 10.9717 17.7551C11.0173 17.7167 11.0749 17.6903 11.1325 17.6759C11.1805 17.6519 11.1733 17.6759 11.1541 17.7143C11.1493 17.7359 11.1229 17.8103 11.1589 17.7719C11.3249 17.7099 11.5002 17.6767 11.6773 17.6735C11.9317 17.6471 12.1861 17.6399 12.4405 17.6375L13.1605 17.6519C13.2757 17.6567 13.3909 17.6807 13.5037 17.6615C13.5301 17.6543 13.5733 17.6543 13.5901 17.6375C13.5373 17.6087 13.4773 17.6063 13.4221 17.5991H12.9637C12.8365 17.5871 12.7045 17.5847 12.5845 17.5367C12.5509 17.5247 12.5221 17.4935 12.4909 17.5271C12.4452 17.5435 12.3976 17.5539 12.3493 17.5583C12.2653 17.5631 12.1813 17.5463 12.1045 17.5151C12.1597 17.4383 12.2269 17.3711 12.2893 17.2991L12.1405 17.2679C12.2293 17.2079 12.3085 17.1383 12.3949 17.0759Z" fill="#FFEC2D"/>
<path id="Vector_4" d="M11.519 17.3591C11.5508 17.3591 11.5766 17.3333 11.5766 17.3015C11.5766 17.2697 11.5508 17.2439 11.519 17.2439C11.4872 17.2439 11.4614 17.2697 11.4614 17.3015C11.4614 17.3333 11.4872 17.3591 11.519 17.3591Z" fill="#FFEC2D"/>
<path id="Vector_5" d="M11.5142 17.3159C11.5275 17.3159 11.5382 17.3052 11.5382 17.2919C11.5382 17.2787 11.5275 17.2679 11.5142 17.2679C11.501 17.2679 11.4902 17.2787 11.4902 17.2919C11.4902 17.3052 11.501 17.3159 11.5142 17.3159Z" fill="#FFEC2D" stroke="#FFEC2D" stroke-width="0.2048"/>
</g>
<g id="Group_4">
<g id="flagKz1x13">
<g id="flagKz1x14">
<path id="Vector_6" d="M2.88006 1.75195C2.88006 1.75195 2.64966 1.55515 2.57046 1.65355C2.44566 1.80955 2.95926 2.58955 2.95926 2.86315C2.95926 3.31435 2.65686 3.43675 2.28726 3.49915C2.03766 3.54235 1.63206 3.48235 1.63206 3.48235C1.70886 3.37915 1.75926 3.34795 1.88646 3.34075C1.74246 3.26875 1.59846 3.10555 1.59846 2.85355C1.59846 2.46715 1.75686 2.30635 1.75686 1.86955C1.75686 1.63195 1.56006 1.31995 1.56006 1.31995C1.91046 1.35595 2.08326 1.67995 1.98486 1.93915C2.01187 1.94452 2.03978 1.94317 2.06615 1.93522C2.09252 1.92727 2.11652 1.91296 2.13606 1.89355C2.16006 1.96555 2.12166 2.04955 2.06646 2.12155C2.10966 2.14555 2.14326 2.13115 2.21046 2.11675C2.20566 2.18875 2.16246 2.27035 2.05206 2.34475C2.36886 2.26315 2.56086 2.48155 2.56086 2.71195C2.56086 2.88715 2.44086 3.01195 2.32086 3.01195C2.28246 3.01195 2.22486 2.99515 2.19366 2.97115C2.16966 3.01915 2.18406 3.08395 2.20566 3.13195C2.11926 3.10795 2.06166 3.05515 2.10246 2.94715C2.03526 2.94235 1.98246 2.91835 1.94646 2.87515C1.98246 2.82715 2.03766 2.80315 2.10246 2.80315C2.05446 2.70235 2.10966 2.64715 2.18886 2.60155C2.18886 2.60155 2.13846 2.80315 2.26566 2.80315C2.32326 2.80315 2.37606 2.78635 2.37606 2.69995C2.37606 2.62555 2.31126 2.52235 2.16006 2.52955C2.01126 2.53675 1.88886 2.63275 1.88886 2.87275C1.88886 3.09355 2.06886 3.20395 2.30406 3.20875C2.51526 3.21835 2.67606 3.10315 2.67606 2.88475C2.67606 2.59195 2.25606 1.92955 2.25606 1.67035C2.25606 1.47595 2.42886 1.36555 2.60166 1.36555C2.82246 1.36555 3.00966 1.58635 3.00966 1.58635L2.88006 1.74955V1.75195Z" fill="#FFEC2D"/>
<path id="flagKz1x15" d="M2.92794 7.0104C2.92794 7.4976 2.49114 7.7472 2.14794 7.7472C1.68714 7.7472 1.43994 7.4712 1.43994 7.1088C1.43994 6.9048 1.47834 6.7752 1.57194 6.5808L2.63274 4.38C2.67117 4.28743 2.6876 4.1872 2.68074 4.0872C2.68074 3.8904 2.48874 3.7296 2.28954 3.7272C2.10714 3.72 1.90554 3.8952 1.90554 4.0944C1.90554 4.3368 2.03274 4.4448 2.16234 4.4448C2.32074 4.4448 2.38314 4.38 2.38314 4.2672C2.38314 4.1904 2.34714 4.1568 2.29194 4.1568C2.15514 4.1568 2.19594 4.3392 2.19594 4.3392C2.17788 4.33586 2.16077 4.32857 2.14585 4.31786C2.13093 4.30715 2.11856 4.29327 2.10962 4.27722C2.10068 4.26118 2.09539 4.24335 2.09413 4.22503C2.09287 4.2067 2.09568 4.18832 2.10234 4.1712C2.05097 4.15968 2.00468 4.13191 1.97034 4.092C2.00634 4.056 2.04954 4.0296 2.10234 4.02C2.07114 3.9144 2.11434 3.864 2.20554 3.84C2.18913 3.87608 2.18492 3.91652 2.19354 3.9552C2.33754 3.912 2.56074 3.9792 2.56074 4.2288C2.56074 4.4784 2.38794 4.6872 2.06394 4.6368C2.14074 4.6728 2.17914 4.7472 2.18874 4.8312C2.12874 4.8072 2.06394 4.8072 2.06394 4.8072C2.10234 4.872 2.15514 4.9272 2.15274 5.0616C2.09274 5.0328 2.03514 4.9824 1.96074 5.0136C2.08074 5.2536 1.93194 5.58 1.55274 5.6568C1.69194 5.4936 1.75914 5.3208 1.75914 5.1456C1.75914 4.5816 1.60314 4.488 1.60314 4.0944C1.60561 4.00312 1.62975 3.91373 1.67356 3.83361C1.71738 3.75349 1.77962 3.68493 1.85514 3.6336V3.6408C1.8087 3.63126 1.7648 3.61201 1.72633 3.58429C1.68786 3.55658 1.65569 3.52104 1.63194 3.48C1.8993 3.40631 2.18193 3.40881 2.44794 3.4872C2.53692 3.49979 2.62193 3.53221 2.69671 3.58205C2.77148 3.6319 2.8341 3.69791 2.87994 3.7752C2.92786 3.88454 2.9526 4.00262 2.9526 4.122C2.9526 4.24138 2.92786 4.35946 2.87994 4.4688C2.72874 4.7808 2.02314 6.2832 1.80234 6.7536C1.75434 6.8544 1.72794 6.96 1.72794 7.0752C1.72794 7.3632 1.99194 7.464 2.14074 7.464C2.32074 7.464 2.50554 7.3272 2.50554 7.1568C2.50554 7.0488 2.44554 6.9816 2.36154 6.9816C2.15754 6.9816 2.16954 7.1544 2.21034 7.2648C2.08314 7.2072 2.01114 7.1064 2.03034 7.0008C1.95159 6.98758 1.88012 6.94674 1.82874 6.8856C1.87674 6.8232 1.93914 6.7752 2.03034 6.7728C1.98954 6.6072 2.10234 6.5376 2.21034 6.4992C2.17674 6.6192 2.15274 6.7608 2.36154 6.7608C2.51274 6.7608 2.63034 6.7848 2.69994 6.8856L2.71674 6.2376C2.72634 6.0432 2.45754 6.0456 2.28474 6.1056C2.34954 5.8824 2.48154 5.76 2.78874 5.7912C2.74168 5.7731 2.70151 5.74064 2.67394 5.69842C2.64636 5.6562 2.63279 5.60637 2.63514 5.556C2.63514 5.3736 2.78394 5.172 2.87994 5.112L2.92794 7.008V7.0104Z" fill="#FFEC2D"/>
<path id="flagKz1x15_2" d="M2.92794 8.46958C2.92794 7.98238 2.49114 7.73278 2.14794 7.73278C1.68714 7.73278 1.43994 8.00878 1.43994 8.37118C1.43994 8.57518 1.47834 8.70478 1.57194 8.89918L2.63274 11.1C2.67117 11.1926 2.6876 11.2928 2.68074 11.3928C2.68074 11.5896 2.48874 11.7504 2.28954 11.7528C2.10714 11.76 1.90554 11.5848 1.90554 11.3856C1.90554 11.1432 2.03274 11.0352 2.16234 11.0352C2.32074 11.0352 2.38314 11.1 2.38314 11.2128C2.38314 11.2896 2.34714 11.3232 2.29194 11.3232C2.15514 11.3232 2.19594 11.1408 2.19594 11.1408C2.17788 11.1441 2.16077 11.1514 2.14585 11.1621C2.13093 11.1728 2.11856 11.1867 2.10962 11.2028C2.10068 11.2188 2.09539 11.2366 2.09413 11.255C2.09287 11.2733 2.09568 11.2917 2.10234 11.3088C2.05097 11.3203 2.00468 11.3481 1.97034 11.388C2.00634 11.424 2.04954 11.4504 2.10234 11.46C2.07114 11.5656 2.11434 11.616 2.20554 11.64C2.18913 11.6039 2.18492 11.5635 2.19354 11.5248C2.33754 11.568 2.56074 11.5008 2.56074 11.2512C2.56074 11.0016 2.38794 10.7928 2.06394 10.8432C2.14074 10.8072 2.17914 10.7328 2.18874 10.6488C2.12874 10.6728 2.06394 10.6728 2.06394 10.6728C2.10234 10.608 2.15514 10.5528 2.15274 10.4184C2.09274 10.4472 2.03514 10.4976 1.96074 10.4664C2.08074 10.2264 1.93194 9.89998 1.55274 9.82318C1.69194 9.98638 1.75914 10.1592 1.75914 10.3344C1.75914 10.8984 1.60314 10.992 1.60314 11.3856C1.60561 11.4769 1.62975 11.5663 1.67356 11.6464C1.71738 11.7265 1.77962 11.795 1.85514 11.8464V11.8392C1.8087 11.8487 1.7648 11.868 1.72633 11.8957C1.68786 11.9234 1.65569 11.9589 1.63194 12C1.8993 12.0737 2.18193 12.0712 2.44794 11.9928C2.53692 11.9802 2.62193 11.9478 2.69671 11.8979C2.77148 11.8481 2.8341 11.7821 2.87994 11.7048C2.92786 11.5954 2.9526 11.4774 2.9526 11.358C2.9526 11.2386 2.92786 11.1205 2.87994 11.0112C2.72874 10.6992 2.02314 9.19678 1.80234 8.72638C1.75434 8.62558 1.72794 8.51998 1.72794 8.40478C1.72794 8.11678 1.99194 8.01598 2.14074 8.01598C2.32074 8.01598 2.50554 8.15278 2.50554 8.32318C2.50554 8.43118 2.44554 8.49838 2.36154 8.49838C2.15754 8.49838 2.16954 8.32558 2.21034 8.21518C2.08314 8.27278 2.01114 8.37358 2.03034 8.47918C1.95159 8.4924 1.88012 8.53324 1.82874 8.59438C1.87674 8.65678 1.93914 8.70478 2.03034 8.70718C1.98954 8.87278 2.10234 8.94238 2.21034 8.98078C2.17674 8.86078 2.15274 8.71918 2.36154 8.71918C2.51274 8.71918 2.63034 8.69518 2.69994 8.59438L2.71674 9.24238C2.72634 9.43678 2.45754 9.43438 2.28474 9.37438C2.34954 9.59758 2.48154 9.71998 2.78874 9.68878C2.74168 9.70688 2.70151 9.73934 2.67394 9.78156C2.64636 9.82378 2.63279 9.87361 2.63514 9.92398C2.63514 10.1064 2.78394 10.308 2.87994 10.368L2.92794 8.47198V8.46958Z" fill="#FFEC2D"/>
</g>
<g id="flagKz1x14_2">
<path id="Vector_7" d="M2.87971 1.75195C2.87971 1.75195 3.11011 1.55515 3.18931 1.65355C3.31411 1.80955 2.80051 2.58955 2.80051 2.86315C2.80051 3.31435 3.10291 3.43675 3.47251 3.49915C3.72211 3.54235 4.12771 3.48235 4.12771 3.48235C4.05091 3.37915 4.00051 3.34795 3.87331 3.34075C4.01731 3.26875 4.16131 3.10555 4.16131 2.85355C4.16131 2.46715 4.00291 2.30635 4.00291 1.86955C4.00291 1.63195 4.19971 1.31995 4.19971 1.31995C3.84931 1.35595 3.67651 1.67995 3.77491 1.93915C3.7479 1.94452 3.71998 1.94317 3.69361 1.93522C3.66725 1.92727 3.64324 1.91296 3.62371 1.89355C3.59971 1.96555 3.63811 2.04955 3.69331 2.12155C3.65011 2.14555 3.61651 2.13115 3.54931 2.11675C3.55411 2.18875 3.59731 2.27035 3.70771 2.34475C3.39091 2.26315 3.19891 2.48155 3.19891 2.71195C3.19891 2.88715 3.31891 3.01195 3.43891 3.01195C3.47731 3.01195 3.53491 2.99515 3.56611 2.97115C3.59011 3.01915 3.57571 3.08395 3.55411 3.13195C3.64051 3.10795 3.69811 3.05515 3.65731 2.94715C3.72451 2.94235 3.77731 2.91835 3.81331 2.87515C3.77731 2.82715 3.72211 2.80315 3.65731 2.80315C3.70531 2.70235 3.65011 2.64715 3.57091 2.60155C3.57091 2.60155 3.62131 2.80315 3.49411 2.80315C3.43651 2.80315 3.38371 2.78635 3.38371 2.69995C3.38371 2.62555 3.44851 2.52235 3.59971 2.52955C3.74851 2.53675 3.87091 2.63275 3.87091 2.87275C3.87091 3.09355 3.69091 3.20395 3.45571 3.20875C3.24451 3.21835 3.08371 3.10315 3.08371 2.88475C3.08371 2.59195 3.50371 1.92955 3.50371 1.67035C3.50371 1.47595 3.33091 1.36555 3.15811 1.36555C2.93731 1.36555 2.75011 1.58635 2.75011 1.58635L2.87971 1.74955V1.75195Z" fill="#FFEC2D"/>
<path id="flagKz1x15_3" d="M2.83182 7.0104C2.83182 7.4976 3.26862 7.7472 3.61182 7.7472C4.07262 7.7472 4.31982 7.4712 4.31982 7.1088C4.31982 6.9048 4.28142 6.7752 4.18782 6.5808L3.12702 4.38C3.08859 4.28743 3.07216 4.1872 3.07902 4.0872C3.07902 3.8904 3.27102 3.7296 3.47022 3.7272C3.65262 3.72 3.85422 3.8952 3.85422 4.0944C3.85422 4.3368 3.72702 4.4448 3.59742 4.4448C3.43902 4.4448 3.37662 4.38 3.37662 4.2672C3.37662 4.1904 3.41262 4.1568 3.46782 4.1568C3.60462 4.1568 3.56382 4.3392 3.56382 4.3392C3.58189 4.33586 3.59899 4.32857 3.61391 4.31786C3.62884 4.30715 3.64121 4.29327 3.65015 4.27722C3.65909 4.26118 3.66438 4.24335 3.66564 4.22503C3.66689 4.2067 3.66409 4.18832 3.65742 4.1712C3.7088 4.15968 3.75509 4.13191 3.78942 4.092C3.75342 4.056 3.71022 4.0296 3.65742 4.02C3.68862 3.9144 3.64542 3.864 3.55422 3.84C3.57063 3.87608 3.57485 3.91652 3.56622 3.9552C3.42222 3.912 3.19902 3.9792 3.19902 4.2288C3.19902 4.4784 3.37182 4.6872 3.69582 4.6368C3.61902 4.6728 3.58062 4.7472 3.57102 4.8312C3.63102 4.8072 3.69582 4.8072 3.69582 4.8072C3.65742 4.872 3.60462 4.9272 3.60702 5.0616C3.66702 5.0328 3.72462 4.9824 3.79902 5.0136C3.67902 5.2536 3.82782 5.58 4.20702 5.6568C4.06782 5.4936 4.00062 5.3208 4.00062 5.1456C4.00062 4.5816 4.15662 4.488 4.15662 4.0944C4.15415 4.00312 4.13002 3.91373 4.0862 3.83361C4.04239 3.75349 3.98015 3.68493 3.90462 3.6336V3.6408C3.95107 3.63126 3.99497 3.61201 4.03343 3.58429C4.0719 3.55658 4.10407 3.52104 4.12782 3.48C3.86047 3.40631 3.57784 3.40881 3.31182 3.4872C3.22285 3.49979 3.13783 3.53221 3.06306 3.58205C2.98829 3.6319 2.92567 3.69791 2.87982 3.7752C2.83191 3.88454 2.80717 4.00262 2.80717 4.122C2.80717 4.24138 2.83191 4.35946 2.87982 4.4688C3.03102 4.7808 3.73662 6.2832 3.95742 6.7536C4.00542 6.8544 4.03182 6.96 4.03182 7.0752C4.03182 7.3632 3.76782 7.464 3.61902 7.464C3.43902 7.464 3.25422 7.3272 3.25422 7.1568C3.25422 7.0488 3.31422 6.9816 3.39822 6.9816C3.60222 6.9816 3.59022 7.1544 3.54942 7.2648C3.67662 7.2072 3.74862 7.1064 3.72942 7.0008C3.80818 6.98758 3.87965 6.94674 3.93102 6.8856C3.88302 6.8232 3.82062 6.7752 3.72942 6.7728C3.77022 6.6072 3.65742 6.5376 3.54942 6.4992C3.58302 6.6192 3.60702 6.7608 3.39822 6.7608C3.24702 6.7608 3.12942 6.7848 3.05982 6.8856L3.04302 6.2376C3.03342 6.0432 3.30222 6.0456 3.47502 6.1056C3.41022 5.8824 3.27822 5.76 2.97102 5.7912C3.01809 5.7731 3.05826 5.74064 3.08583 5.69842C3.1134 5.6562 3.12698 5.60637 3.12462 5.556C3.12462 5.3736 2.97582 5.172 2.87982 5.112L2.83182 7.008V7.0104Z" fill="#FFEC2D"/>
<path id="flagKz1x15_4" d="M2.83182 8.46958C2.83182 7.98238 3.26862 7.73278 3.61182 7.73278C4.07262 7.73278 4.31982 8.00878 4.31982 8.37118C4.31982 8.57518 4.28142 8.70478 4.18782 8.89918L3.12702 11.1C3.08859 11.1926 3.07216 11.2928 3.07902 11.3928C3.07902 11.5896 3.27102 11.7504 3.47022 11.7528C3.65262 11.76 3.85422 11.5848 3.85422 11.3856C3.85422 11.1432 3.72702 11.0352 3.59742 11.0352C3.43902 11.0352 3.37662 11.1 3.37662 11.2128C3.37662 11.2896 3.41262 11.3232 3.46782 11.3232C3.60462 11.3232 3.56382 11.1408 3.56382 11.1408C3.58189 11.1441 3.59899 11.1514 3.61391 11.1621C3.62884 11.1728 3.64121 11.1867 3.65015 11.2028C3.65909 11.2188 3.66438 11.2366 3.66564 11.255C3.66689 11.2733 3.66409 11.2917 3.65742 11.3088C3.7088 11.3203 3.75509 11.3481 3.78942 11.388C3.75342 11.424 3.71022 11.4504 3.65742 11.46C3.68862 11.5656 3.64542 11.616 3.55422 11.64C3.57063 11.6039 3.57485 11.5635 3.56622 11.5248C3.42222 11.568 3.19902 11.5008 3.19902 11.2512C3.19902 11.0016 3.37182 10.7928 3.69582 10.8432C3.61902 10.8072 3.58062 10.7328 3.57102 10.6488C3.63102 10.6728 3.69582 10.6728 3.69582 10.6728C3.65742 10.608 3.60462 10.5528 3.60702 10.4184C3.66702 10.4472 3.72462 10.4976 3.79902 10.4664C3.67902 10.2264 3.82782 9.89998 4.20702 9.82318C4.06782 9.98638 4.00062 10.1592 4.00062 10.3344C4.00062 10.8984 4.15662 10.992 4.15662 11.3856C4.15415 11.4769 4.13002 11.5663 4.0862 11.6464C4.04239 11.7265 3.98015 11.795 3.90462 11.8464V11.8392C3.95107 11.8487 3.99497 11.868 4.03343 11.8957C4.0719 11.9234 4.10407 11.9589 4.12782 12C3.86047 12.0737 3.57784 12.0712 3.31182 11.9928C3.22285 11.9802 3.13783 11.9478 3.06306 11.8979C2.98829 11.8481 2.92567 11.7821 2.87982 11.7048C2.83191 11.5954 2.80717 11.4774 2.80717 11.358C2.80717 11.2386 2.83191 11.1205 2.87982 11.0112C3.03102 10.6992 3.73662 9.19678 3.95742 8.72638C4.00542 8.62558 4.03182 8.51998 4.03182 8.40478C4.03182 8.11678 3.76782 8.01598 3.61902 8.01598C3.43902 8.01598 3.25422 8.15278 3.25422 8.32318C3.25422 8.43118 3.31422 8.49838 3.39822 8.49838C3.60222 8.49838 3.59022 8.32558 3.54942 8.21518C3.67662 8.27278 3.74862 8.37358 3.72942 8.47918C3.80818 8.4924 3.87965 8.53324 3.93102 8.59438C3.88302 8.65678 3.82062 8.70478 3.72942 8.70718C3.77022 8.87278 3.65742 8.94238 3.54942 8.98078C3.58302 8.86078 3.60702 8.71918 3.39822 8.71918C3.24702 8.71918 3.12942 8.69518 3.05982 8.59438L3.04302 9.24238C3.03342 9.43678 3.30222 9.43438 3.47502 9.37438C3.41022 9.59758 3.27822 9.71998 2.97102 9.68878C3.01809 9.70688 3.05826 9.73934 3.08583 9.78156C3.1134 9.82378 3.12698 9.87361 3.12462 9.92398C3.12462 10.1064 2.97582 10.308 2.87982 10.368L2.83182 8.47198V8.46958Z" fill="#FFEC2D"/>
</g>
</g>
<g id="flagKz1x13_2">
<g id="flagKz1x14_3">
<path id="Vector_8" d="M2.88006 22.2479C2.88006 22.2479 2.64966 22.4447 2.57046 22.3463C2.44566 22.1903 2.95926 21.4103 2.95926 21.1367C2.95926 20.6855 2.65686 20.5631 2.28726 20.5007C2.03766 20.4575 1.63206 20.5175 1.63206 20.5175C1.70886 20.6207 1.75926 20.6519 1.88646 20.6591C1.74246 20.7311 1.59846 20.8943 1.59846 21.1463C1.59846 21.5327 1.75686 21.6935 1.75686 22.1303C1.75686 22.3679 1.56006 22.6799 1.56006 22.6799C1.91046 22.6439 2.08326 22.3199 1.98486 22.0607C2.01187 22.0554 2.03978 22.0567 2.06615 22.0647C2.09252 22.0726 2.11652 22.0869 2.13606 22.1063C2.16006 22.0343 2.12166 21.9503 2.06646 21.8783C2.10966 21.8543 2.14326 21.8687 2.21046 21.8831C2.20566 21.8111 2.16246 21.7295 2.05206 21.6551C2.36886 21.7367 2.56086 21.5183 2.56086 21.2879C2.56086 21.1127 2.44086 20.9879 2.32086 20.9879C2.28246 20.9879 2.22486 21.0047 2.19366 21.0287C2.16966 20.9807 2.18406 20.9159 2.20566 20.8679C2.11926 20.8919 2.06166 20.9447 2.10246 21.0527C2.03526 21.0575 1.98246 21.0815 1.94646 21.1247C1.98246 21.1727 2.03766 21.1967 2.10246 21.1967C2.05446 21.2975 2.10966 21.3527 2.18886 21.3983C2.18886 21.3983 2.13846 21.1967 2.26566 21.1967C2.32326 21.1967 2.37606 21.2135 2.37606 21.2999C2.37606 21.3743 2.31126 21.4775 2.16006 21.4703C2.01126 21.4631 1.88886 21.3671 1.88886 21.1271C1.88886 20.9063 2.06886 20.7959 2.30406 20.7911C2.51526 20.7815 2.67606 20.8967 2.67606 21.1151C2.67606 21.4079 2.25606 22.0703 2.25606 22.3295C2.25606 22.5239 2.42886 22.6343 2.60166 22.6343C2.82246 22.6343 3.00966 22.4135 3.00966 22.4135L2.88006 22.2503V22.2479Z" fill="#FFEC2D"/>
<path id="flagKz1x15_5" d="M2.92794 16.9895C2.92794 16.5023 2.49114 16.2527 2.14794 16.2527C1.68714 16.2527 1.43994 16.5287 1.43994 16.8911C1.43994 17.0951 1.47834 17.2247 1.57194 17.4191L2.63274 19.6199C2.67117 19.7124 2.6876 19.8127 2.68074 19.9127C2.68074 20.1095 2.48874 20.2703 2.28954 20.2727C2.10714 20.2799 1.90554 20.1047 1.90554 19.9055C1.90554 19.6631 2.03274 19.5551 2.16234 19.5551C2.32074 19.5551 2.38314 19.6199 2.38314 19.7327C2.38314 19.8095 2.34714 19.8431 2.29194 19.8431C2.15514 19.8431 2.19594 19.6607 2.19594 19.6607C2.17788 19.664 2.16077 19.6713 2.14585 19.682C2.13093 19.6927 2.11856 19.7066 2.10962 19.7227C2.10068 19.7387 2.09539 19.7565 2.09413 19.7749C2.09287 19.7932 2.09568 19.8116 2.10234 19.8287C2.05097 19.8402 2.00468 19.868 1.97034 19.9079C2.00634 19.9439 2.04954 19.9703 2.10234 19.9799C2.07114 20.0855 2.11434 20.1359 2.20554 20.1599C2.18913 20.1238 2.18492 20.0834 2.19354 20.0447C2.33754 20.0879 2.56074 20.0207 2.56074 19.7711C2.56074 19.5215 2.38794 19.3127 2.06394 19.3631C2.14074 19.3271 2.17914 19.2527 2.18874 19.1687C2.12874 19.1927 2.06394 19.1927 2.06394 19.1927C2.10234 19.1279 2.15514 19.0727 2.15274 18.9383C2.09274 18.9671 2.03514 19.0175 1.96074 18.9863C2.08074 18.7463 1.93194 18.4199 1.55274 18.3431C1.69194 18.5063 1.75914 18.6791 1.75914 18.8543C1.75914 19.4183 1.60314 19.5119 1.60314 19.9055C1.60561 19.9968 1.62975 20.0861 1.67356 20.1663C1.71738 20.2464 1.77962 20.3149 1.85514 20.3663V20.3591C1.8087 20.3686 1.7648 20.3879 1.72633 20.4156C1.68786 20.4433 1.65569 20.4788 1.63194 20.5199C1.8993 20.5936 2.18193 20.5911 2.44794 20.5127C2.53692 20.5001 2.62193 20.4677 2.69671 20.4178C2.77148 20.368 2.8341 20.302 2.87994 20.2247C2.92786 20.1153 2.9526 19.9973 2.9526 19.8779C2.9526 19.7585 2.92786 19.6404 2.87994 19.5311C2.72874 19.2191 2.02314 17.7167 1.80234 17.2463C1.75434 17.1455 1.72794 17.0399 1.72794 16.9247C1.72794 16.6367 1.99194 16.5359 2.14074 16.5359C2.32074 16.5359 2.50554 16.6727 2.50554 16.8431C2.50554 16.9511 2.44554 17.0183 2.36154 17.0183C2.15754 17.0183 2.16954 16.8455 2.21034 16.7351C2.08314 16.7927 2.01114 16.8935 2.03034 16.9991C1.95159 17.0123 1.88012 17.0531 1.82874 17.1143C1.87674 17.1767 1.93914 17.2247 2.03034 17.2271C1.98954 17.3927 2.10234 17.4623 2.21034 17.5007C2.17674 17.3807 2.15274 17.2391 2.36154 17.2391C2.51274 17.2391 2.63034 17.2151 2.69994 17.1143L2.71674 17.7623C2.72634 17.9567 2.45754 17.9543 2.28474 17.8943C2.34954 18.1175 2.48154 18.2399 2.78874 18.2087C2.74168 18.2268 2.70151 18.2592 2.67394 18.3015C2.64636 18.3437 2.63279 18.3935 2.63514 18.4439C2.63514 18.6263 2.78394 18.8279 2.87994 18.8879L2.92794 16.9919V16.9895Z" fill="#FFEC2D"/>
<path id="flagKz1x15_6" d="M2.92794 15.5303C2.92794 16.0175 2.49114 16.2671 2.14794 16.2671C1.68714 16.2671 1.43994 15.9911 1.43994 15.6287C1.43994 15.4247 1.47834 15.2951 1.57194 15.1007L2.63274 12.8999C2.67117 12.8073 2.6876 12.7071 2.68074 12.6071C2.68074 12.4103 2.48874 12.2495 2.28954 12.2471C2.10714 12.2399 1.90554 12.4151 1.90554 12.6143C1.90554 12.8567 2.03274 12.9647 2.16234 12.9647C2.32074 12.9647 2.38314 12.8999 2.38314 12.7871C2.38314 12.7103 2.34714 12.6767 2.29194 12.6767C2.15514 12.6767 2.19594 12.8591 2.19594 12.8591C2.17788 12.8558 2.16077 12.8485 2.14585 12.8378C2.13093 12.827 2.11856 12.8132 2.10962 12.7971C2.10068 12.7811 2.09539 12.7633 2.09413 12.7449C2.09287 12.7266 2.09568 12.7082 2.10234 12.6911C2.05097 12.6796 2.00468 12.6518 1.97034 12.6119C2.00634 12.5759 2.04954 12.5495 2.10234 12.5399C2.07114 12.4343 2.11434 12.3839 2.20554 12.3599C2.18913 12.396 2.18492 12.4364 2.19354 12.4751C2.33754 12.4319 2.56074 12.4991 2.56074 12.7487C2.56074 12.9983 2.38794 13.2071 2.06394 13.1567C2.14074 13.1927 2.17914 13.2671 2.18874 13.3511C2.12874 13.3271 2.06394 13.3271 2.06394 13.3271C2.10234 13.3919 2.15514 13.4471 2.15274 13.5815C2.09274 13.5527 2.03514 13.5023 1.96074 13.5335C2.08074 13.7735 1.93194 14.0999 1.55274 14.1767C1.69194 14.0135 1.75914 13.8407 1.75914 13.6655C1.75914 13.1015 1.60314 13.0079 1.60314 12.6143C1.60561 12.523 1.62975 12.4336 1.67356 12.3535C1.71738 12.2734 1.77962 12.2048 1.85514 12.1535V12.1607C1.8087 12.1512 1.7648 12.1319 1.72633 12.1042C1.68786 12.0765 1.65569 12.0409 1.63194 11.9999C1.8993 11.9262 2.18193 11.9287 2.44794 12.0071C2.53692 12.0197 2.62193 12.0521 2.69671 12.102C2.77148 12.1518 2.8341 12.2178 2.87994 12.2951C2.92786 12.4044 2.9526 12.5225 2.9526 12.6419C2.9526 12.7613 2.92786 12.8794 2.87994 12.9887C2.72874 13.3007 2.02314 14.8031 1.80234 15.2735C1.75434 15.3743 1.72794 15.4799 1.72794 15.5951C1.72794 15.8831 1.99194 15.9839 2.14074 15.9839C2.32074 15.9839 2.50554 15.8471 2.50554 15.6767C2.50554 15.5687 2.44554 15.5015 2.36154 15.5015C2.15754 15.5015 2.16954 15.6743 2.21034 15.7847C2.08314 15.7271 2.01114 15.6263 2.03034 15.5207C1.95159 15.5075 1.88012 15.4666 1.82874 15.4055C1.87674 15.3431 1.93914 15.2951 2.03034 15.2927C1.98954 15.1271 2.10234 15.0575 2.21034 15.0191C2.17674 15.1391 2.15274 15.2807 2.36154 15.2807C2.51274 15.2807 2.63034 15.3047 2.69994 15.4055L2.71674 14.7575C2.72634 14.5631 2.45754 14.5655 2.28474 14.6255C2.34954 14.4023 2.48154 14.2799 2.78874 14.3111C2.74168 14.293 2.70151 14.2605 2.67394 14.2183C2.64636 14.1761 2.63279 14.1263 2.63514 14.0759C2.63514 13.8935 2.78394 13.6919 2.87994 13.6319L2.92794 15.5279V15.5303Z" fill="#FFEC2D"/>
</g>
<g id="flagKz1x14_4">
<path id="Vector_9" d="M2.87971 22.2479C2.87971 22.2479 3.11011 22.4447 3.18931 22.3463C3.31411 22.1903 2.80051 21.4103 2.80051 21.1367C2.80051 20.6855 3.10291 20.5631 3.47251 20.5007C3.72211 20.4575 4.12771 20.5175 4.12771 20.5175C4.05091 20.6207 4.00051 20.6519 3.87331 20.6591C4.01731 20.7311 4.16131 20.8943 4.16131 21.1463C4.16131 21.5327 4.00291 21.6935 4.00291 22.1303C4.00291 22.3679 4.19971 22.6799 4.19971 22.6799C3.84931 22.6439 3.67651 22.3199 3.77491 22.0607C3.7479 22.0554 3.71998 22.0567 3.69361 22.0647C3.66725 22.0726 3.64324 22.0869 3.62371 22.1063C3.59971 22.0343 3.63811 21.9503 3.69331 21.8783C3.65011 21.8543 3.61651 21.8687 3.54931 21.8831C3.55411 21.8111 3.59731 21.7295 3.70771 21.6551C3.39091 21.7367 3.19891 21.5183 3.19891 21.2879C3.19891 21.1127 3.31891 20.9879 3.43891 20.9879C3.47731 20.9879 3.53491 21.0047 3.56611 21.0287C3.59011 20.9807 3.57571 20.9159 3.55411 20.8679C3.64051 20.8919 3.69811 20.9447 3.65731 21.0527C3.72451 21.0575 3.77731 21.0815 3.81331 21.1247C3.77731 21.1727 3.72211 21.1967 3.65731 21.1967C3.70531 21.2975 3.65011 21.3527 3.57091 21.3983C3.57091 21.3983 3.62131 21.1967 3.49411 21.1967C3.43651 21.1967 3.38371 21.2135 3.38371 21.2999C3.38371 21.3743 3.44851 21.4775 3.59971 21.4703C3.74851 21.4631 3.87091 21.3671 3.87091 21.1271C3.87091 20.9063 3.69091 20.7959 3.45571 20.7911C3.24451 20.7815 3.08371 20.8967 3.08371 21.1151C3.08371 21.4079 3.50371 22.0703 3.50371 22.3295C3.50371 22.5239 3.33091 22.6343 3.15811 22.6343C2.93731 22.6343 2.75011 22.4135 2.75011 22.4135L2.87971 22.2503V22.2479Z" fill="#FFEC2D"/>
<path id="flagKz1x15_7" d="M2.83182 16.9895C2.83182 16.5023 3.26862 16.2527 3.61182 16.2527C4.07262 16.2527 4.31982 16.5287 4.31982 16.8911C4.31982 17.0951 4.28142 17.2247 4.18782 17.4191L3.12702 19.6199C3.08859 19.7124 3.07216 19.8127 3.07902 19.9127C3.07902 20.1095 3.27102 20.2703 3.47022 20.2727C3.65262 20.2799 3.85422 20.1047 3.85422 19.9055C3.85422 19.6631 3.72702 19.5551 3.59742 19.5551C3.43902 19.5551 3.37662 19.6199 3.37662 19.7327C3.37662 19.8095 3.41262 19.8431 3.46782 19.8431C3.60462 19.8431 3.56382 19.6607 3.56382 19.6607C3.58189 19.664 3.59899 19.6713 3.61391 19.682C3.62884 19.6927 3.64121 19.7066 3.65015 19.7227C3.65909 19.7387 3.66438 19.7565 3.66564 19.7749C3.66689 19.7932 3.66409 19.8116 3.65742 19.8287C3.7088 19.8402 3.75509 19.868 3.78942 19.9079C3.75342 19.9439 3.71022 19.9703 3.65742 19.9799C3.68862 20.0855 3.64542 20.1359 3.55422 20.1599C3.57063 20.1238 3.57485 20.0834 3.56622 20.0447C3.42222 20.0879 3.19902 20.0207 3.19902 19.7711C3.19902 19.5215 3.37182 19.3127 3.69582 19.3631C3.61902 19.3271 3.58062 19.2527 3.57102 19.1687C3.63102 19.1927 3.69582 19.1927 3.69582 19.1927C3.65742 19.1279 3.60462 19.0727 3.60702 18.9383C3.66702 18.9671 3.72462 19.0175 3.79902 18.9863C3.67902 18.7463 3.82782 18.4199 4.20702 18.3431C4.06782 18.5063 4.00062 18.6791 4.00062 18.8543C4.00062 19.4183 4.15662 19.5119 4.15662 19.9055C4.15415 19.9968 4.13002 20.0861 4.0862 20.1663C4.04239 20.2464 3.98015 20.3149 3.90462 20.3663V20.3591C3.95107 20.3686 3.99497 20.3879 4.03343 20.4156C4.0719 20.4433 4.10407 20.4788 4.12782 20.5199C3.86047 20.5936 3.57784 20.5911 3.31182 20.5127C3.22285 20.5001 3.13783 20.4677 3.06306 20.4178C2.98829 20.368 2.92567 20.302 2.87982 20.2247C2.83191 20.1153 2.80717 19.9973 2.80717 19.8779C2.80717 19.7585 2.83191 19.6404 2.87982 19.5311C3.03102 19.2191 3.73662 17.7167 3.95742 17.2463C4.00542 17.1455 4.03182 17.0399 4.03182 16.9247C4.03182 16.6367 3.76782 16.5359 3.61902 16.5359C3.43902 16.5359 3.25422 16.6727 3.25422 16.8431C3.25422 16.9511 3.31422 17.0183 3.39822 17.0183C3.60222 17.0183 3.59022 16.8455 3.54942 16.7351C3.67662 16.7927 3.74862 16.8935 3.72942 16.9991C3.80818 17.0123 3.87965 17.0531 3.93102 17.1143C3.88302 17.1767 3.82062 17.2247 3.72942 17.2271C3.77022 17.3927 3.65742 17.4623 3.54942 17.5007C3.58302 17.3807 3.60702 17.2391 3.39822 17.2391C3.24702 17.2391 3.12942 17.2151 3.05982 17.1143L3.04302 17.7623C3.03342 17.9567 3.30222 17.9543 3.47502 17.8943C3.41022 18.1175 3.27822 18.2399 2.97102 18.2087C3.01809 18.2268 3.05826 18.2592 3.08583 18.3015C3.1134 18.3437 3.12698 18.3935 3.12462 18.4439C3.12462 18.6263 2.97582 18.8279 2.87982 18.8879L2.83182 16.9919V16.9895Z" fill="#FFEC2D"/>
<path id="flagKz1x15_8" d="M2.83182 15.5303C2.83182 16.0175 3.26862 16.2671 3.61182 16.2671C4.07262 16.2671 4.31982 15.9911 4.31982 15.6287C4.31982 15.4247 4.28142 15.2951 4.18782 15.1007L3.12702 12.8999C3.08859 12.8073 3.07216 12.7071 3.07902 12.6071C3.07902 12.4103 3.27102 12.2495 3.47022 12.2471C3.65262 12.2399 3.85422 12.4151 3.85422 12.6143C3.85422 12.8567 3.72702 12.9647 3.59742 12.9647C3.43902 12.9647 3.37662 12.8999 3.37662 12.7871C3.37662 12.7103 3.41262 12.6767 3.46782 12.6767C3.60462 12.6767 3.56382 12.8591 3.56382 12.8591C3.58189 12.8558 3.59899 12.8485 3.61391 12.8378C3.62884 12.827 3.64121 12.8132 3.65015 12.7971C3.65909 12.7811 3.66438 12.7633 3.66564 12.7449C3.66689 12.7266 3.66409 12.7082 3.65742 12.6911C3.7088 12.6796 3.75509 12.6518 3.78942 12.6119C3.75342 12.5759 3.71022 12.5495 3.65742 12.5399C3.68862 12.4343 3.64542 12.3839 3.55422 12.3599C3.57063 12.396 3.57485 12.4364 3.56622 12.4751C3.42222 12.4319 3.19902 12.4991 3.19902 12.7487C3.19902 12.9983 3.37182 13.2071 3.69582 13.1567C3.61902 13.1927 3.58062 13.2671 3.57102 13.3511C3.63102 13.3271 3.69582 13.3271 3.69582 13.3271C3.65742 13.3919 3.60462 13.4471 3.60702 13.5815C3.66702 13.5527 3.72462 13.5023 3.79902 13.5335C3.67902 13.7735 3.82782 14.0999 4.20702 14.1767C4.06782 14.0135 4.00062 13.8407 4.00062 13.6655C4.00062 13.1015 4.15662 13.0079 4.15662 12.6143C4.15415 12.523 4.13002 12.4336 4.0862 12.3535C4.04239 12.2734 3.98015 12.2048 3.90462 12.1535V12.1607C3.95107 12.1512 3.99497 12.1319 4.03343 12.1042C4.0719 12.0765 4.10407 12.0409 4.12782 11.9999C3.86047 11.9262 3.57784 11.9287 3.31182 12.0071C3.22285 12.0197 3.13783 12.0521 3.06306 12.102C2.98829 12.1518 2.92567 12.2178 2.87982 12.2951C2.83191 12.4044 2.80717 12.5225 2.80717 12.6419C2.80717 12.7613 2.83191 12.8794 2.87982 12.9887C3.03102 13.3007 3.73662 14.8031 3.95742 15.2735C4.00542 15.3743 4.03182 15.4799 4.03182 15.5951C4.03182 15.8831 3.76782 15.9839 3.61902 15.9839C3.43902 15.9839 3.25422 15.8471 3.25422 15.6767C3.25422 15.5687 3.31422 15.5015 3.39822 15.5015C3.60222 15.5015 3.59022 15.6743 3.54942 15.7847C3.67662 15.7271 3.74862 15.6263 3.72942 15.5207C3.80818 15.5075 3.87965 15.4666 3.93102 15.4055C3.88302 15.3431 3.82062 15.2951 3.72942 15.2927C3.77022 15.1271 3.65742 15.0575 3.54942 15.0191C3.58302 15.1391 3.60702 15.2807 3.39822 15.2807C3.24702 15.2807 3.12942 15.3047 3.05982 15.4055L3.04302 14.7575C3.03342 14.5631 3.30222 14.5655 3.47502 14.6255C3.41022 14.4023 3.27822 14.2799 2.97102 14.3111C3.01809 14.293 3.05826 14.2605 3.08583 14.2183C3.1134 14.1761 3.12698 14.1263 3.12462 14.0759C3.12462 13.8935 2.97582 13.6919 2.87982 13.6319L2.83182 15.5279V15.5303Z" fill="#FFEC2D"/>
</g>
</g>
</g>
</g>
</g>
</g>
<defs>
<clipPath id="clip0_85_1352">
<rect width="24" height="24" rx="6" fill="white"/>
</clipPath>
</defs>
</svg>
